<svg id="logo-type" class="disable-transitions" width="100%" height="100%" viewBox="0 0 446 74" version="1.1" xmlns="http://www.w3.org/2000/svg" xmlns:xlink="http://www.w3.org/1999/xlink" xml:space="preserve" xmlns:serif="http://www.serif.com/">
	<circle r="1.8" cx="43.196998596191406" cy="62.59600067138672" class="in"/><circle r="1.8" cx="38.8234977722168" cy="67.47940826416016" class="in"/><circle r="1.8" cx="33.2894172668457" cy="70.98792266845703" class="in"/><circle r="1.8" cx="26.977174758911133" cy="72.73605346679688" class="in"/><circle r="1.8" cx="20.43086051940918" cy="72.5211181640625" class="in"/><circle r="1.8" cx="14.245709419250488" cy="70.36487579345703" class="in"/><circle r="1.8" cx="8.936988830566406" cy="66.52265930175781" class="in"/><circle r="1.8" cx="4.849610328674316" cy="61.39669418334961" class="in"/><circle r="1.8" cx="2.189990758895874" cy="55.4024658203125" class="in"/><circle r="1.8" cx="1.0671061277389526" cy="48.94033432006836" class="in"/><circle r="1.8" cx="1.4979965686798096" cy="42.3950080871582" class="in"/><circle r="1.8" cx="3.4820868968963623" cy="36.14403533935547" class="in"/><circle r="1.8" cx="6.9538960456848145" cy="30.581649780273438" class="in"/><circle r="1.8" cx="11.752323150634766" cy="26.11639976501465" class="in"/><circle r="1.8" cx="17.60158920288086" cy="23.1655330657959" class="in"/><circle r="1.8" cx="24.059362411499023" cy="22.072803497314453" class="in"/><circle r="1.8" cx="30.54901885986328" cy="22.957122802734375" class="in"/><circle r="1.8" cx="36.487083435058594" cy="25.72416877746582" class="in"/><circle r="1.8" cx="41.41275405883789" cy="30.04816436767578" class="in"/><circle r="1.8" cx="45.034793853759766" cy="35.51370620727539" class="in"/><circle r="1.8" cx="47.18174362182617" cy="41.71050262451172" class="in"/><circle r="1.8" cx="47.024139404296875" cy="47.4789924621582" class="in"/><circle r="1.8" cx="40.44926452636719" cy="47.4789924621582" class="in"/><circle r="1.8" cx="33.8743896484375" cy="47.47899627685547" class="in"/><circle r="1.8" cx="27.299514770507812" cy="47.47899627685547" class="in"/><circle r="1.8" cx="20.724639892578125" cy="47.47899627685547" class="in"/><circle r="1.8" cx="14.149749755859375" cy="47.47899627685547" class="in"/><circle r="1.8" cx="7.5748748779296875" cy="47.479000091552734" class="in"/><circle r="1.8" cx="63.06700134277344" cy="1.3619999885559082" class="in"/><circle r="1.8" cx="63.0670051574707" cy="7.62371826171875" class="in"/><circle r="1.8" cx="63.0670051574707" cy="13.88543701171875" class="in"/><circle r="1.8" cx="63.0670051574707" cy="20.147151947021484" class="in"/><circle r="1.8" cx="63.06700134277344" cy="26.408870697021484" class="in"/><circle r="1.8" cx="63.06700134277344" cy="32.67058563232422" class="in"/><circle r="1.8" cx="63.06700134277344" cy="38.93230438232422" class="in"/><circle r="1.8" cx="63.06700134277344" cy="45.19402313232422" class="in"/><circle r="1.8" cx="63.06700134277344" cy="51.45574188232422" class="in"/><circle r="1.8" cx="63.06700134277344" cy="57.71745681762695" class="in"/><circle r="1.8" cx="63.06700134277344" cy="63.97917556762695" class="in"/><circle r="1.8" cx="64.75741577148438" cy="69.90742492675781" class="in"/><circle r="1.8" cx="70.1310043334961" cy="72.64004516601562" class="in"/><circle r="1.8" cx="76.2300033569336" cy="71.41200256347656" class="in"/><circle r="1.8" cx="124.99700164794922" cy="62.59600067138672" class="in"/><circle r="1.8" cx="120.62318420410156" cy="67.47914123535156" class="in"/><circle r="1.8" cx="115.0891342163086" cy="70.98771667480469" class="in"/><circle r="1.8" cx="108.7769546508789" cy="72.73604583740234" class="in"/><circle r="1.8" cx="102.23065185546875" cy="72.52108001708984" class="in"/><circle r="1.8" cx="96.0455551147461" cy="70.36473083496094" class="in"/><circle r="1.8" cx="90.73690032958984" cy="66.52246856689453" class="in"/><circle r="1.8" cx="86.64956665039062" cy="61.396522521972656" class="in"/><circle r="1.8" cx="83.99005126953125" cy="55.40227127075195" class="in"/><circle r="1.8" cx="82.86711120605469" cy="48.940189361572266" class="in"/><circle r="1.8" cx="83.2980728149414" cy="42.39488983154297" class="in"/><circle r="1.8" cx="85.28221130371094" cy="36.14394760131836" class="in"/><circle r="1.8" cx="88.75404357910156" cy="30.58160400390625" class="in"/><circle r="1.8" cx="93.5524673461914" cy="26.116426467895508" class="in"/><circle r="1.8" cx="99.40167236328125" cy="23.16550636291504" class="in"/><circle r="1.8" cx="105.85945892333984" cy="22.07280158996582" class="in"/><circle r="1.8" cx="112.34908294677734" cy="22.95718002319336" class="in"/><circle r="1.8" cx="118.28709411621094" cy="25.724266052246094" class="in"/><circle r="1.8" cx="123.21276092529297" cy="30.0482234954834" class="in"/><circle r="1.8" cx="126.83479309082031" cy="35.51374053955078" class="in"/><circle r="1.8" cx="128.981689453125" cy="41.71054458618164" class="in"/><circle r="1.8" cx="128.8241424560547" cy="47.4789924621582" class="in"/><circle r="1.8" cx="122.24925231933594" cy="47.4789924621582" class="in"/><circle r="1.8" cx="115.67437744140625" cy="47.47899627685547" class="in"/><circle r="1.8" cx="109.09950256347656" cy="47.47899627685547" class="in"/><circle r="1.8" cx="102.52462768554688" cy="47.47899627685547" class="in"/><circle r="1.8" cx="95.94975280761719" cy="47.47899627685547" class="in"/><circle r="1.8" cx="89.3748779296875" cy="47.479000091552734" class="in"/><circle r="1.8" cx="144.34300231933594" cy="1.3610000610351562" class="in"/><circle r="1.8" cx="144.34300231933594" cy="7.803001403808594" class="in"/><circle r="1.8" cx="144.34300231933594" cy="14.244998931884766" class="in"/><circle r="1.8" cx="144.34300231933594" cy="20.687000274658203" class="in"/><circle r="1.8" cx="144.34300231933594" cy="27.128997802734375" class="in"/><circle r="1.8" cx="144.34300231933594" cy="33.57099914550781" class="in"/><circle r="1.8" cx="144.34300231933594" cy="40.01300048828125" class="in"/><circle r="1.8" cx="144.34300231933594" cy="46.45499801635742" class="in"/><circle r="1.8" cx="144.34300231933594" cy="52.89699935913086" class="in"/><circle r="1.8" cx="144.34300231933594" cy="59.3390007019043" class="in"/><circle r="1.8" cx="144.34300231933594" cy="65.78099822998047" class="in"/><circle r="1.8" cx="144.34300231933594" cy="72.2229995727539" class="in"/><circle r="1.8" cx="148.76275634765625" cy="52.25137710571289" class="in"/><circle r="1.8" cx="153.35250854492188" cy="47.977752685546875" class="in"/><circle r="1.8" cx="157.9422607421875" cy="43.704124450683594" class="in"/><circle r="1.8" cx="162.53201293945312" cy="39.430503845214844" class="in"/><circle r="1.8" cx="167.1217498779297" cy="35.15687561035156" class="in"/><circle r="1.8" cx="171.7115020751953" cy="30.883251190185547" class="in"/><circle r="1.8" cx="176.30125427246094" cy="26.60962677001953" class="in"/><circle r="1.8" cx="180.89100646972656" cy="22.336000442504883" class="in"/><circle r="1.8" cx="163.38232421875" cy="47.10850143432617" class="in"/><circle r="1.8" cx="167.0276641845703" cy="52.183998107910156" class="in"/><circle r="1.8" cx="170.67298889160156" cy="57.259498596191406" class="in"/><circle r="1.8" cx="174.31832885742188" cy="62.334999084472656" class="in"/><circle r="1.8" cx="177.96365356445312" cy="67.4104995727539" class="in"/><circle r="1.8" cx="181.60899353027344" cy="72.48600006103516" class="in"/><circle r="1.8" cx="197.68499755859375" cy="5.067999839782715" class="in"/><circle r="1.8" cx="197.68499755859375" cy="11.293190002441406" class="in"/><circle r="1.8" cx="197.68499755859375" cy="17.51837921142578" class="in"/><circle r="1.8" cx="197.68499755859375" cy="23.74356460571289" class="in"/><circle r="1.8" cx="197.68499755859375" cy="29.968753814697266" class="in"/><circle r="1.8" cx="197.68499755859375" cy="36.193939208984375" class="in"/><circle r="1.8" cx="197.68499755859375" cy="42.41912841796875" class="in"/><circle r="1.8" cx="197.68499755859375" cy="48.644317626953125" class="in"/><circle r="1.8" cx="197.68499755859375" cy="54.8695068359375" class="in"/><circle r="1.8" cx="197.68499755859375" cy="61.09469223022461" class="in"/><circle r="1.8" cx="198.17283630371094" cy="67.268798828125" class="in"/><circle r="1.8" cx="202.13548278808594" cy="71.80227661132812" class="in"/><circle r="1.8" cx="208.26585388183594" cy="72.12288665771484" class="in"/><circle r="1.8" cx="214.1699981689453" cy="70.19000244140625" class="in"/><circle r="1.8" cx="189.77200317382812" cy="22.73699951171875" class="in"/><circle r="1.8" cx="202.73666381835938" cy="22.73699951171875" class="in"/><circle r="1.8" cx="209.218994140625" cy="22.73699951171875" class="in"/><circle r="1.8" cx="226.18800354003906" cy="72.88800048828125" class="in"/><circle r="1.8" cx="226.18800354003906" cy="66.56900024414062" class="in"/><circle r="1.8" cx="226.18800354003906" cy="60.25" class="in"/><circle r="1.8" cx="226.18800354003906" cy="53.930999755859375" class="in"/><circle r="1.8" cx="226.18800354003906" cy="47.61199951171875" class="in"/><circle r="1.8" cx="226.18800354003906" cy="41.292999267578125" class="in"/><circle r="1.8" cx="226.18800354003906" cy="34.9739990234375" class="in"/><circle r="1.8" cx="226.18800354003906" cy="28.655000686645508" class="in"/><circle r="1.8" cx="226.18800354003906" cy="22.336000442504883" class="in"/><circle r="1.8" cx="246.17100524902344" cy="22.70800018310547" class="in"/><circle r="1.8" cx="240.6371612548828" cy="24.857328414916992" class="in"/><circle r="1.8" cx="235.67288208007812" cy="28.116914749145508" class="in"/><circle r="1.8" cx="231.5452117919922" cy="32.38330078125" class="in"/><circle r="1.8" cx="276.40399169921875" cy="22.06999969482422" class="in"/><circle r="1.8" cx="282.7098083496094" cy="22.937524795532227" class="in"/><circle r="1.8" cx="288.5135192871094" cy="25.54698944091797" class="in"/><circle r="1.8" cx="293.3475036621094" cy="29.68775177001953" class="in"/><circle r="1.8" cx="296.9071350097656" cy="34.96783447265625" class="in"/><circle r="1.8" cx="299.05670166015625" cy="40.96474075317383" class="in"/><circle r="1.8" cx="299.7786865234375" cy="47.29632568359375" class="in"/><circle r="1.8" cx="299.0687255859375" cy="53.62794494628906" class="in"/><circle r="1.8" cx="296.8902587890625" cy="59.61415100097656" class="in"/><circle r="1.8" cx="293.3210144042969" cy="64.88909912109375" class="in"/><circle r="1.8" cx="288.5245056152344" cy="69.07606506347656" class="in"/><circle r="1.8" cx="282.7709045410156" cy="71.79597473144531" class="in"/><circle r="1.8" cx="276.4799499511719" cy="72.74874114990234" class="in"/><circle r="1.8" cx="270.1825256347656" cy="71.8399658203125" class="in"/><circle r="1.8" cx="264.41070556640625" cy="69.15913391113281" class="in"/><circle r="1.8" cx="259.5879211425781" cy="65.0025405883789" class="in"/><circle r="1.8" cx="255.9875030517578" cy="59.74889373779297" class="in"/><circle r="1.8" cx="253.77496337890625" cy="53.775230407714844" class="in"/><circle r="1.8" cx="253.0301055908203" cy="47.4476432800293" class="in"/><circle r="1.8" cx="253.757568359375" cy="41.118019104003906" class="in"/><circle r="1.8" cx="255.9530792236328" cy="35.13806915283203" class="in"/><circle r="1.8" cx="259.5377502441406" cy="29.8736572265625" class="in"/><circle r="1.8" cx="264.3471984863281" cy="25.70167350769043" class="in"/><circle r="1.8" cx="270.1097717285156" cy="23.00099754333496" class="in"/><circle r="1.8" cx="317.94000244140625" cy="72.51200103759766" class="in"/><circle r="1.8" cx="317.94000244140625" cy="66.31704711914062" class="in"/><circle r="1.8" cx="317.94000244140625" cy="60.12208938598633" class="in"/><circle r="1.8" cx="317.94000244140625" cy="53.92713165283203" class="in"/><circle r="1.8" cx="317.94000244140625" cy="47.732173919677734" class="in"/><circle r="1.8" cx="317.94000244140625" cy="41.53721618652344" class="in"/><circle r="1.8" cx="317.94000244140625" cy="35.342262268066406" class="in"/><circle r="1.8" cx="317.94000244140625" cy="29.14730453491211" class="in"/><circle r="1.8" cx="317.94000244140625" cy="22.952346801757812" class="in"/><circle r="1.8" cx="317.94000244140625" cy="16.75739288330078" class="in"/><circle r="1.8" cx="318.5582580566406" cy="10.612438201904297" class="in"/><circle r="1.8" cx="321.06732177734375" cy="4.993860244750977" class="in"/><circle r="1.8" cx="326.0294494628906" cy="1.4674735069274902" class="in"/><circle r="1.8" cx="332.1652526855469" cy="1.249393105506897" class="in"/><circle r="1.8" cx="338.0769958496094" cy="3.055999994277954" class="in"/><circle r="1.8" cx="309.8429870605469" cy="29.062000274658203" class="in"/><circle r="1.8" cx="322.9729919433594" cy="29.062000274658203" class="in"/><circle r="1.8" cx="329.5379943847656" cy="29.062000274658203" class="in"/><circle r="1.8" cx="366.90899658203125" cy="22.06999969482422" class="in"/><circle r="1.8" cx="373.2236633300781" cy="22.929128646850586" class="in"/><circle r="1.8" cx="379.061279296875" cy="25.475202560424805" class="in"/><circle r="1.8" cx="383.9251403808594" cy="29.58655548095703" class="in"/><circle r="1.8" cx="387.47174072265625" cy="34.880157470703125" class="in"/><circle r="1.8" cx="389.57977294921875" cy="40.89717483520508" class="in"/><circle r="1.8" cx="390.2835388183594" cy="47.236915588378906" class="in"/><circle r="1.8" cx="389.5860595703125" cy="53.5750617980957" class="in"/><circle r="1.8" cx="387.4174499511719" cy="59.570247650146484" class="in"/><circle r="1.8" cx="383.85504150390625" cy="64.85591125488281" class="in"/><circle r="1.8" cx="379.0619812011719" cy="69.05452728271484" class="in"/><circle r="1.8" cx="373.30828857421875" cy="71.78609466552734" class="in"/><circle r="1.8" cx="367.0137023925781" cy="72.74864196777344" class="in"/><circle r="1.8" cx="360.710205078125" cy="71.84660339355469" class="in"/><circle r="1.8" cx="354.93133544921875" cy="69.16895294189453" class="in"/><circle r="1.8" cx="350.1019592285156" cy="65.01226806640625" class="in"/><circle r="1.8" cx="346.4963684082031" cy="59.75601577758789" class="in"/><circle r="1.8" cx="344.28070068359375" cy="53.77809143066406" class="in"/><circle r="1.8" cx="343.53509521484375" cy="47.445491790771484" class="in"/><circle r="1.8" cx="344.26275634765625" cy="41.11070251464844" class="in"/><circle r="1.8" cx="346.4541015625" cy="35.12363052368164" class="in"/><circle r="1.8" cx="350.03094482421875" cy="29.847646713256836" class="in"/><circle r="1.8" cx="354.83660888671875" cy="25.66375160217285" class="in"/><circle r="1.8" cx="360.60540771484375" cy="22.965761184692383" class="in"/><circle r="1.8" cx="405.90899658203125" cy="72.2229995727539" class="in"/><circle r="1.8" cx="405.90948486328125" cy="65.98712921142578" class="in"/><circle r="1.8" cx="405.9100036621094" cy="59.751251220703125" class="in"/><circle r="1.8" cx="405.9104919433594" cy="53.51537322998047" class="in"/><circle r="1.8" cx="405.9109802246094" cy="47.279502868652344" class="in"/><circle r="1.8" cx="405.9114990234375" cy="41.04362487792969" class="in"/><circle r="1.8" cx="405.9119873046875" cy="34.80774688720703" class="in"/><circle r="1.8" cx="405.9125061035156" cy="28.571874618530273" class="in"/><circle r="1.8" cx="405.9129943847656" cy="22.336000442504883" class="in"/><circle r="1.8" cx="413.17913818359375" cy="29.611116409301758" class="in"/><circle r="1.8" cx="418.2223815917969" cy="25.7425594329834" class="in"/><circle r="1.8" cx="424.0226135253906" cy="23.13009262084961" class="in"/><circle r="1.8" cx="430.2493896484375" cy="21.91782569885254" class="in"/><circle r="1.8" cx="436.2611999511719" cy="23.71809196472168" class="in"/><circle r="1.8" cx="440.3970031738281" cy="28.49003791809082" class="in"/><circle r="1.8" cx="442.6905822753906" cy="34.4190559387207" class="in"/><circle r="1.8" cx="443.83392333984375" cy="40.6827507019043" class="in"/><circle r="1.8" cx="444.14361572265625" cy="47.04408264160156" class="in"/><circle r="1.8" cx="444.14569091796875" cy="53.417057037353516" class="in"/><circle r="1.8" cx="444.144775390625" cy="59.7900390625" class="in"/><circle r="1.8" cx="444.1413879394531" cy="66.16301727294922" class="in"/><circle r="1.8" cx="444.13800048828125" cy="72.53600311279297" class="in"/></svg>